<!DOCTYPE svg PUBLIC "-//W3C//DTD SVG 1.1//EN" "http://www.w3.org/Graphics/SVG/1.1/DTD/svg11.dtd">
<!-- Uploaded to: SVG Repo, www.svgrepo.com, Transformed by: SVG Repo Mixer Tools -->
<svg width="800px" height="800px" viewBox="0 0 32 32" data-name="Layer 1" id="Layer_1" xmlns="http://www.w3.org/2000/svg" fill="#000000">
<g id="SVGRepo_bgCarrier" stroke-width="0"/>
<g id="SVGRepo_tracerCarrier" stroke-linecap="round" stroke-linejoin="round"/>
<g id="SVGRepo_iconCarrier">
<path d="M24,21.45V25a2.0059,2.0059,0,0,1-2,2H9V21h9V16Z" fill="#ffffff"/>
<polygon fill="#ffffff" points="24 11 24 21.45 18 16 18 11 24 11"/>
<polygon fill="#ffffff" points="9 5 9 11 3 11 9 5"/>
<rect fill="#ffffff" height="11" width="6" x="3" y="11"/>
<path d="M24,7v4h-.5L18,16V11H9V5H22A2.0059,2.0059,0,0,1,24,7Z" fill="#ffffff"/>
<path d="M9,21v6H5a2.0059,2.0059,0,0,1-2-2V21Z" fill="#ffffff"/>
<path d="M29,8.26V23.74a.9989.9989,0,0,1-1.67.74L24,21.45,18,16l5.5-5,.5-.45,3.33-3.03A.9989.9989,0,0,1,29,8.26Z" fill="#ffffff"/>
<polygon fill="#ffffff" points="24 10.55 24 21.45 18 16 23.5 11 24 10.55"/>
</g>
</svg>